Coordinates
version=1
nRows=15
nColumns=34
inDegrees=yes

Units are S.I. units (second, meters, Newtons, ...)
If the header above contains a line with 'inDegrees', this indicates whether rotational values are in degrees (yes) or radians (no).

endheader
time	pelvis_tilt	pelvis_list	pelvis_rotation	pelvis_tx	pelvis_ty	pelvis_tz	hip_flexion_r	hip_adduction_r	hip_rotation_r	knee_angle_r	ankle_angle_r	subtalar_angle_r	mtp_angle_r	hip_flexion_l	hip_adduction_l	hip_rotation_l	knee_angle_l	ankle_angle_l	subtalar_angle_l	mtp_angle_l	lumbar_extension	lumbar_bending	lumbar_rotation	arm_flex_r	arm_add_r	arm_rot_r	elbow_flex_r	pro_sup_r	arm_flex_l	arm_add_l	arm_rot_l	elbow_flex_l	pro_sup_l
      0.00000000	     -0.96361461	      0.07673944	     -3.19146654	      1.81648778	      0.91635061	     -0.17738090	     -0.24579592	     -5.79628830	     -3.20969058	      3.64259356	      1.99547289	    -11.94866364	      0.00000000	     -3.57567852	     -5.54859687	     -6.46728970	      3.56631903	      6.89294618	     -3.44015775	      0.00000000	     -8.60729460	      1.29783999	     -2.56205731	     12.36508327	     -4.13057123	     36.18540463	     78.09360747	     95.41309959	      4.43817668	     -6.95255137	     30.52849938	     68.37287396	     81.89504070
      0.01666670	     -2.41763483	      0.28290949	     -3.15674257	      1.81816170	      0.91537144	     -0.17834887	      1.34573793	     -5.74307353	     -1.93342317	      3.78017195	      4.82229346	     -9.85921284	      0.00000000	     -1.21744791	     -5.09770685	     -6.20357198	      3.91248710	      7.77002321	     -2.08863726	      0.00000000	     -6.31892815	      1.58468811	     -2.78796781	     11.60116643	     -3.32715615	     34.29941818	     76.42700729	     94.72176649	      3.45671584	     -6.67160418	     28.90214206	     67.66453929	     81.38724849
      0.03333330	     -2.57646457	      0.93205192	     -3.30631157	      1.81810548	      0.91555470	     -0.17776180	      1.15791976	     -6.51510026	     -2.09476328	      2.85444171	      4.70051834	     -9.65774487	      0.00000000	     -1.20429667	     -4.53778748	     -6.48034235	      3.42995674	      7.52173782	     -2.00546423	      0.00000000	     -6.26409759	      0.73915539	     -2.49546259	     11.61569676	     -3.17918850	     34.20774019	     76.14602411	     94.62792013	      3.78611211	     -7.23748504	     28.50381658	     67.38210551	     81.29674113
      0.05000000	     -1.91775108	      1.33586391	     -3.38699482	      1.81816408	      0.91748663	     -0.17707074	      0.07832886	     -7.05282138	     -1.93727333	      2.11569836	      4.91161100	     -9.40886438	      0.00000000	     -2.69960126	     -3.99373074	     -6.34449210	      2.10898183	      6.90358283	     -2.29109185	      0.00000000	     -6.92810196	      0.15048531	     -2.00113945	     11.65050995	     -3.03914089	     34.12535984	     75.44685597	     94.38363329	      4.40965658	     -7.49368181	     28.55924098	     66.84000156	     81.28511402
      0.06666670	     -1.32031224	      1.50079067	     -3.34227168	      1.81835183	      0.91884797	     -0.17659582	     -0.98708686	     -7.19481695	     -1.69988933	      1.36241317	      4.93629641	     -9.62979727	      0.00000000	     -3.81955719	     -3.73022774	     -5.80559499	      1.21768177	      6.60064460	     -2.91856851	      0.00000000	     -7.70815973	     -0.07721990	     -1.77474748	     11.78869465	     -3.26765166	     34.72828726	     76.05557684	     94.10924926	      5.00800592	     -7.76606272	     29.48590389	     66.70579605	     81.52971066
      0.08333330	     -0.84169944	      1.59963455	     -3.26130259	      1.81847218	      0.91977094	     -0.17615809	     -1.81826235	     -7.22085951	     -1.36870794	      0.82847786	      4.83115840	    -10.10080495	      0.00000000	     -4.61152047	     -3.56846184	     -5.24428448	      0.68031239	      6.30814664	     -3.63862901	      0.00000000	     -8.31474990	     -0.25881741	     -1.53690107	     11.90161788	     -3.53784214	     35.35363427	     77.03728612	     93.74106754	      5.62547694	     -8.02670577	     30.66940863	     66.82955761	     81.93850426
      0.10000000	     -0.88510482	      1.63844659	     -3.14958090	      1.81842257	      0.92011010	     -0.17591110	     -1.88455061	     -7.19280563	     -1.29034846	      0.66933710	      4.89110607	    -10.12512727	      0.00000000	     -4.59680330	     -3.54235991	     -5.18692484	      0.56457258	      6.31707414	     -3.65600592	      0.00000000	     -8.30556218	     -0.32863823	     -1.48706920	     11.94862807	     -3.39959826	     35.42352044	     77.13696464	     93.72430486	      5.69964921	     -7.95275916	     30.72855581	     66.85814522	     81.95933255
      0.11666670	     -0.60211127	      1.77709719	     -3.02237952	      1.81872392	      0.92035232	     -0.17587173	     -2.61043831	     -7.29418747	     -0.93934569	      0.00000000	      4.84455009	    -10.59723886	      0.00000000	     -5.07371423	     -3.35905853	     -4.56895563	      0.24749005	      6.00989846	     -3.94388535	      0.00000000	     -8.60182266	     -0.56432646	     -1.57554218	     11.83488014	     -3.69611378	     35.99452624	     77.93816259	     93.55046875	      5.95450946	     -8.12116380	     31.37260906	     66.78127154	     82.16990718
      0.13333330	     -0.60348608	      1.79173598	     -3.01907574	      1.81878692	      0.91986261	     -0.17563588	     -2.60985494	     -7.27479686	     -0.94168795	      0.00000000	      4.84218435	    -10.60234326	      0.00000000	     -5.08468723	     -3.35289407	     -4.56896154	      0.25145480	      6.00672303	     -3.94783528	      0.00000000	     -8.60096839	     -0.56075846	     -1.57375857	     11.84414493	     -3.69250454	     35.99663735	     77.94628182	     93.54900710	      5.96593360	     -8.11851203	     31.37494385	     66.78403469	     82.17122780
      0.15000000	     -0.01853824	      1.73712086	     -2.85519040	      1.81822691	      0.91989661	     -0.17570247	     -3.27838352	     -7.21999295	     -0.69261338	      0.00000000	      4.37163700	    -11.80825162	      0.00000000	     -5.67803879	     -3.39700850	     -3.99514366	      0.21494059	      5.19471645	     -4.82371609	      0.00000000	     -9.58327372	     -0.48107686	     -1.47658285	     12.21620094	     -4.23759827	     36.79119386	     79.46703323	     93.21368972	      6.79921679	     -8.27094436	     32.24995389	     66.72649649	     82.46516487
      0.16666670	     -0.05003660	      1.72331460	     -2.93472893	      1.81851920	      0.91961592	     -0.17507358	     -3.22670104	     -7.17179698	     -0.66371320	      0.00000000	      4.37855980	    -11.85909708	      0.00000000	     -5.72334293	     -3.43450518	     -3.91867242	      0.15476554	      5.21869477	     -4.86421872	      0.00000000	     -9.59796655	     -0.51632704	     -1.38023295	     12.19555113	     -4.24731021	     36.80838362	     79.50142713	     93.18484453	      6.86864665	     -8.47162611	     32.21756523	     66.69684013	     82.47717793
      0.18333330	     -0.06877707	      1.73883686	     -2.92574417	      1.81911449	      0.91955353	     -0.17462900	     -3.23686148	     -7.16546234	     -0.65748534	      0.00000000	      4.37848883	    -11.86291097	      0.00000000	     -5.73357223	     -3.44303214	     -3.91502128	      0.15940314	      5.21372818	     -4.86623718	      0.00000000	     -9.60012716	     -0.51597356	     -1.37443342	     12.19437849	     -4.25087886	     36.80978133	     79.50465501	     93.18286486	      6.87344522	     -8.48322697	     32.21556594	     66.69482386	     82.47784796
      0.20000000	     -0.05564964	      1.71203498	     -2.83166588	      1.81960504	      0.91984662	     -0.17392029	     -3.30834220	     -7.07213509	     -0.57528640	      0.00000000	      4.41658738	    -11.97282964	      0.00000000	     -5.74899374	     -3.53933751	     -3.81143296	      0.17345785	      5.07635280	     -4.86273313	      0.00000000	     -9.61565774	     -0.58006212	     -1.24766866	     12.10369999	     -4.32794054	     36.85803408	     79.55841300	     93.15306057	      6.93603019	     -8.82084095	     32.13890537	     66.62427070	     82.48311633
      0.21666670	      0.10362197	      1.73183953	     -2.91967133	      1.81954554	      0.92067849	     -0.17339788	     -3.46578124	     -7.06294449	      0.23622319	      0.00000000	      3.88007065	    -13.66293173	      0.00000000	     -6.02189924	     -3.51957565	     -3.26244754	      0.00000000	      4.19699131	     -6.03903144	      0.00000000	    -10.06059963	     -0.67535866	     -0.88320162	     11.90577343	     -4.84153511	     37.06429886	     80.76661671	     92.47373861	      7.40754291	     -9.00191164	     32.78438243	     66.54942041	     82.67615258
      0.23333330	      0.09843990	      1.73938843	     -2.91975633	      1.81947363	      0.92136260	     -0.17343944	     -3.46605623	     -7.05914299	      0.23603892	      0.00000000	      3.88028508	    -13.66351525	      0.00000000	     -6.02467092	     -3.52269483	     -3.26208970	      0.00108082	      4.19634334	     -6.03881912	      0.00000000	    -10.05966375	     -0.67520317	     -0.88289210	     11.90499073	     -4.84221338	     37.06422404	     80.76638761	     92.47339890	      7.40860537	     -9.00326644	     32.78383271	     66.54945440	     82.67616798
